<svg width="58" height="55" viewBox="0 0 58 55" fill="none" xmlns="http://www.w3.org/2000/svg">
<g clip-path="url(#clip0_7_550)">
<path fill-rule="evenodd" clip-rule="evenodd" d="M58.0755 10.5045C49.4762 14.7232 45.1766 19.6802 45.1766 25.3755C48.8419 25.7974 51.8727 27.2916 54.2693 29.858C56.6658 32.4244 57.8641 35.3951 57.8641 38.7701C57.8641 42.356 56.7011 45.3794 54.375 47.8404C52.049 50.3013 49.1238 51.5318 45.5995 51.5318C41.6522 51.5318 38.2337 49.9322 35.3438 46.733C32.4538 43.5337 31.0089 39.649 31.0089 35.0787C31.0089 21.3677 38.6918 10.6451 54.0578 2.91071L58.0755 10.5045ZM27.112 10.5045C18.4421 14.7232 14.1073 19.6802 14.1073 25.3755C17.8431 25.7974 20.9092 27.2916 23.3057 29.858C25.7023 32.4244 26.9005 35.3951 26.9005 38.7701C26.9005 42.356 25.7199 45.3794 23.3586 47.8404C20.9973 50.3013 18.0545 51.5318 14.5302 51.5318C10.583 51.5318 7.18204 49.9322 4.32734 46.733C1.47264 43.5337 0.045311 39.649 0.045311 35.0787C0.045311 21.3677 7.69298 10.6451 22.9885 2.91071L27.112 10.5045Z" fill="#D6D6D6"/>
</g>
<defs>
<clipPath id="clip0_7_550">
<rect width="58" height="54" fill="white" transform="translate(0 0.5)"/>
</clipPath>
</defs>
</svg>
